<svg xmlns="http://www.w3.org/2000/svg" preserveAspectRatio="none" viewBox="0 0 1440 320">
  <path fill="#1e29ff" fill-opacity="1"
    d="M0,64L75.8,288L151.6,160L227.4,256L303.2,320L378.9,0L454.7,288L530.5,64L606.3,128L682.1,0L757.9,32L833.7,192L909.5,224L985.3,192L1061.1,0L1136.8,192L1212.6,128L1288.4,288L1364.2,64L1440,192L1440,0L1364.2,0L1288.4,0L1212.6,0L1136.8,0L1061.1,0L985.3,0L909.5,0L833.7,0L757.9,0L682.1,0L606.3,0L530.5,0L454.7,0L378.9,0L303.2,0L227.4,0L151.6,0L75.8,0L0,0Z"></path>
</svg>