<svg xmlns="http://www.w3.org/2000/svg" preserveAspectRatio="none" viewBox="0 0 1440 320" transform="rotate(180)">
    <defs>
      <linearGradient id="a" x1="0%" y1="0%" x2="100%" y2="0%">
          <stop offset="0%" stop-color="#1e88e5" />
          <stop offset="100%" stop-color="#8e24aa" />
      </linearGradient>
      <filter id="b" width="120" height="120">
          <feOffset in="SourceAlpha" dy="20" />
          <feGaussianBlur stdDeviation="8" />
          <feBlend in="SourceGraphic" in2="blurOut" />
      </filter>
  </defs>
  <path fill="url(#a)" filter="url(#b)"
    d="M0,64L75.8,288L151.6,160L227.4,256L303.2,320L378.9,0L454.7,288L530.5,64L606.3,128L682.1,0L757.9,32L833.7,192L909.5,224L985.3,192L1061.1,0L1136.8,192L1212.6,128L1288.4,288L1364.2,64L1440,192L1440,320L1364.2,320L1288.4,320L1212.6,320L1136.8,320L1061.1,320L985.3,320L909.5,320L833.7,320L757.9,320L682.1,320L606.3,320L530.5,320L454.7,320L378.9,320L303.2,320L227.4,320L151.6,320L75.8,320L0,320Z"></path>
</svg>